# xmcd
#
# Track frame offsets:
#	182
#	17557
#	30752
#	46465
#	61657
#	73422
#	87257
#	102205
#	116182
#	133922
#
# Disc length: 1978 seconds
#
# Revision: 4
# Processed by: cddbd v1.5.2PL0 Copyright (c) Steve Scherf et al.
# Submitted via: audiograbber 1.83.01
#
DISCID=8307b80a
DTITLE=Skaggs, Ricky - Life is a journey
DYEAR=1997
DGENRE=Country
TTITLE0=Hillbilly highway
TTITLE1=Straight to you
TTITLE2=Let's put love back to work
TTITLE3=Lonesome dove
TTITLE4=Time is a bandit
TTITLE5=Ain't love a good thing
TTITLE6=I don't remember forgetting
TTITLE7=When life hits hard
TTITLE8=The selfishness in man
TTITLE9=Voices singing
EXTD=
EXTT0=
EXTT1=
EXTT2=
EXTT3=
EXTT4=
EXTT5=
EXTT6=
EXTT7=
EXTT8=
EXTT9=
PLAYORDER=
